<svg width="58" height="58" viewBox="0 0 58 58" fill="none" xmlns="http://www.w3.org/2000/svg">
    <path d="M2.12132 29L29 2.12132L55.8787 29L29 55.8787L2.12132 29Z" stroke="white" stroke-width="3"/>
    <path d="M29.1237 16.76H32.0037V31.94C32.0037 33.28 31.7937 34.38 31.3737 35.24C30.9537 36.08 30.4237 36.75 29.7837 37.25C29.1637 37.73 28.4937 38.06 27.7737 38.24C27.0537 38.44 26.3937 38.54 25.7937 38.54C24.2937 38.54 23.0237 38.16 21.9837 37.4C20.9637 36.62 20.3137 35.45 20.0337 33.89L22.8537 33.26C23.0137 34.06 23.3437 34.69 23.8437 35.15C24.3437 35.61 24.9937 35.84 25.7937 35.84C26.5137 35.84 27.0837 35.7 27.5037 35.42C27.9437 35.14 28.2837 34.78 28.5237 34.34C28.7637 33.88 28.9237 33.36 29.0037 32.78C29.0837 32.2 29.1237 31.61 29.1237 31.01V16.76Z" fill="white"/>
</svg>
